<?xml version="1.0" encoding="UTF-8"?>
<svg xmlns="http://www.w3.org/2000/svg" xmlns:xlink="http://www.w3.org/1999/xlink" width="1500pt" height="1500pt" viewBox="0 0 1500 1500" version="1.1">
<g id="surface1">
<path style="fill-rule:nonzero;fill:rgb(0%,0%,0%);fill-opacity:1;stroke-width:4.027683;stroke-linecap:butt;stroke-linejoin:miter;stroke:rgb(67.843137%,100%,18.431373%);stroke-opacity:1;stroke-miterlimit:4;" d="M 188.729167 -932.78125 L 39.984375 -950.838542 " transform="matrix(0.75,0,0,0.75,750,750)"/>
<path style=" stroke:none;fill-rule:nonzero;fill:rgb(67.843137%,100%,18.431373%);fill-opacity:1;" d="M 779.988281 36.871094 L 795.890625 31.191406 L 794.070312 46.1875 Z M 779.988281 36.871094 "/>
<path style="fill-rule:nonzero;fill:rgb(0%,0%,0%);fill-opacity:1;stroke-width:4.027683;stroke-linecap:butt;stroke-linejoin:miter;stroke:rgb(41.960784%,55.686275%,13.72549%);stroke-opacity:1;stroke-miterlimit:4;" d="M 405.026042 -855.864583 L 39.104167 -946.057292 " transform="matrix(0.75,0,0,0.75,750,750)"/>
<path style=" stroke:none;fill-rule:nonzero;fill:rgb(41.960784%,55.686275%,13.72549%);fill-opacity:1;" d="M 779.328125 40.457031 L 795.800781 36.738281 L 792.1875 51.40625 Z M 779.328125 40.457031 "/>
<path style="fill-rule:nonzero;fill:rgb(0%,0%,0%);fill-opacity:1;stroke-width:4.027683;stroke-linecap:butt;stroke-linejoin:miter;stroke:rgb(96.078431%,96.078431%,96.078431%);stroke-opacity:1;stroke-miterlimit:4;" d="M 596.083333 -729.630208 L 37.661458 -941.411458 " transform="matrix(0.75,0,0,0.75,750,750)"/>
<path style=" stroke:none;fill-rule:nonzero;fill:rgb(96.078431%,96.078431%,96.078431%);fill-opacity:1;" d="M 778.246094 43.941406 L 795.042969 42.234375 L 789.6875 56.355469 Z M 778.246094 43.941406 "/>
<path style="fill-rule:nonzero;fill:rgb(0%,0%,0%);fill-opacity:1;stroke-width:4.027683;stroke-linecap:butt;stroke-linejoin:miter;stroke:rgb(100%,54.901961%,0%);stroke-opacity:1;stroke-miterlimit:4;" d="M 750.859375 -561.614583 L 35.661458 -936.979167 " transform="matrix(0.75,0,0,0.75,750,750)"/>
<path style=" stroke:none;fill-rule:nonzero;fill:rgb(100%,54.901961%,0%);fill-opacity:1;" d="M 776.746094 47.265625 L 793.628906 47.597656 L 786.613281 60.972656 Z M 776.746094 47.265625 "/>
<path style="fill-rule:nonzero;fill:rgb(0%,0%,0%);fill-opacity:1;stroke-width:4.027683;stroke-linecap:butt;stroke-linejoin:miter;stroke:rgb(100%,92.156863%,80.392157%);stroke-opacity:1;stroke-miterlimit:4;" d="M 860.442708 -361.776042 L 33.145833 -932.817708 " transform="matrix(0.75,0,0,0.75,750,750)"/>
<path style=" stroke:none;fill-rule:nonzero;fill:rgb(100%,92.156863%,80.392157%);fill-opacity:1;" d="M 774.859375 50.386719 L 791.582031 52.753906 L 783 65.183594 Z M 774.859375 50.386719 "/>
<path style="fill-rule:nonzero;fill:rgb(0%,0%,0%);fill-opacity:1;stroke-width:4.027683;stroke-linecap:butt;stroke-linejoin:miter;stroke:rgb(50.196078%,50.196078%,50.196078%);stroke-opacity:1;stroke-miterlimit:4;" d="M 918.578125 -141.90625 L 30.145833 -928.989583 " transform="matrix(0.75,0,0,0.75,750,750)"/>
<path style=" stroke:none;fill-rule:nonzero;fill:rgb(50.196078%,50.196078%,50.196078%);fill-opacity:1;" d="M 772.609375 53.257812 L 788.925781 57.621094 L 778.910156 68.929688 Z M 772.609375 53.257812 "/>
<path style="fill-rule:nonzero;fill:rgb(0%,0%,0%);fill-opacity:1;stroke-width:4.027683;stroke-linecap:butt;stroke-linejoin:miter;stroke:rgb(27.45098%,50.980392%,70.588235%);stroke-opacity:1;stroke-miterlimit:4;" d="M 922.020833 85.046875 L 26.708333 -925.546875 " transform="matrix(0.75,0,0,0.75,750,750)"/>
<path style=" stroke:none;fill-rule:nonzero;fill:rgb(27.45098%,50.980392%,70.588235%);fill-opacity:1;" d="M 770.03125 55.839844 L 785.699219 62.136719 L 774.394531 72.152344 Z M 770.03125 55.839844 "/>
<path style="fill-rule:nonzero;fill:rgb(0%,0%,0%);fill-opacity:1;stroke-width:4.027683;stroke-linecap:butt;stroke-linejoin:miter;stroke:rgb(64.705882%,16.470588%,16.470588%);stroke-opacity:1;stroke-miterlimit:4;" d="M 870.713542 305.744792 L 22.880208 -922.546875 " transform="matrix(0.75,0,0,0.75,750,750)"/>
<path style=" stroke:none;fill-rule:nonzero;fill:rgb(64.705882%,16.470588%,16.470588%);fill-opacity:1;" d="M 767.160156 58.089844 L 781.953125 66.230469 L 769.523438 74.808594 Z M 767.160156 58.089844 "/>
<path style="fill-rule:nonzero;fill:rgb(0%,0%,0%);fill-opacity:1;stroke-width:4.027683;stroke-linecap:butt;stroke-linejoin:miter;stroke:rgb(85.882353%,43.921569%,57.647059%);stroke-opacity:1;stroke-miterlimit:4;" d="M 767.802083 507.234375 L 18.71875 -920.03125 " transform="matrix(0.75,0,0,0.75,750,750)"/>
<path style=" stroke:none;fill-rule:nonzero;fill:rgb(85.882353%,43.921569%,57.647059%);fill-opacity:1;" d="M 764.039062 59.976562 L 777.746094 69.839844 L 764.371094 76.859375 Z M 764.039062 59.976562 "/>
<path style="fill-rule:nonzero;fill:rgb(0%,0%,0%);fill-opacity:1;stroke-width:4.027683;stroke-linecap:butt;stroke-linejoin:miter;stroke:rgb(18.039216%,54.509804%,34.117647%);stroke-opacity:1;stroke-miterlimit:4;" d="M 619.463542 677.6875 L 14.28125 -918.036458 " transform="matrix(0.75,0,0,0.75,750,750)"/>
<path style=" stroke:none;fill-rule:nonzero;fill:rgb(18.039216%,54.509804%,34.117647%);fill-opacity:1;" d="M 760.710938 61.472656 L 773.128906 72.917969 L 759.007812 78.273438 Z M 760.710938 61.472656 "/>
<path style="fill-rule:nonzero;fill:rgb(0%,0%,0%);fill-opacity:1;stroke-width:4.027683;stroke-linecap:butt;stroke-linejoin:miter;stroke:rgb(97.254902%,97.254902%,100%);stroke-opacity:1;stroke-miterlimit:4;" d="M 434.494792 807.119792 L 9.640625 -916.588542 " transform="matrix(0.75,0,0,0.75,750,750)"/>
<path style=" stroke:none;fill-rule:nonzero;fill:rgb(97.254902%,97.254902%,100%);fill-opacity:1;" d="M 757.230469 62.558594 L 768.175781 75.414062 L 753.511719 79.03125 Z M 757.230469 62.558594 "/>
<path style="fill-rule:nonzero;fill:rgb(0%,0%,0%);fill-opacity:1;stroke-width:4.027683;stroke-linecap:butt;stroke-linejoin:miter;stroke:rgb(100%,93.72549%,83.529412%);stroke-opacity:1;stroke-miterlimit:4;" d="M 223.859375 887.942708 L 4.854167 -915.713542 " transform="matrix(0.75,0,0,0.75,750,750)"/>
<path style=" stroke:none;fill-rule:nonzero;fill:rgb(100%,93.72549%,83.529412%);fill-opacity:1;" d="M 753.640625 63.214844 L 762.957031 77.300781 L 747.964844 79.121094 Z M 753.640625 63.214844 "/>
<path style="fill:none;stroke-width:4.027683;stroke-linecap:butt;stroke-linejoin:miter;stroke:rgb(43.921569%,50.196078%,56.470588%);stroke-opacity:1;stroke-miterlimit:4;" d="M 0 915.416667 L 0 -915.416667 " transform="matrix(0.75,0,0,0.75,750,750)"/>
<path style=" stroke:none;fill-rule:nonzero;fill:rgb(43.921569%,50.196078%,56.470588%);fill-opacity:1;" d="M 750 63.4375 L 757.550781 78.539062 L 742.449219 78.539062 Z M 750 63.4375 "/>
<path style="fill-rule:nonzero;fill:rgb(0%,0%,0%);fill-opacity:1;stroke-width:4.027683;stroke-linecap:butt;stroke-linejoin:miter;stroke:rgb(98.039216%,92.156863%,84.313725%);stroke-opacity:1;stroke-miterlimit:4;" d="M -223.859375 887.942708 L -4.854167 -915.713542 " transform="matrix(0.75,0,0,0.75,750,750)"/>
<path style=" stroke:none;fill-rule:nonzero;fill:rgb(98.039216%,92.156863%,84.313725%);fill-opacity:1;" d="M 746.359375 63.214844 L 752.035156 79.121094 L 737.042969 77.300781 Z M 746.359375 63.214844 "/>
<path style="fill-rule:nonzero;fill:rgb(0%,0%,0%);fill-opacity:1;stroke-width:4.027683;stroke-linecap:butt;stroke-linejoin:miter;stroke:rgb(0%,50.196078%,0%);stroke-opacity:1;stroke-miterlimit:4;" d="M -434.494792 807.119792 L -9.640625 -916.588542 " transform="matrix(0.75,0,0,0.75,750,750)"/>
<path style=" stroke:none;fill-rule:nonzero;fill:rgb(0%,50.196078%,0%);fill-opacity:1;" d="M 742.769531 62.558594 L 746.488281 79.03125 L 731.824219 75.414062 Z M 742.769531 62.558594 "/>
<path style="fill-rule:nonzero;fill:rgb(0%,0%,0%);fill-opacity:1;stroke-width:4.027683;stroke-linecap:butt;stroke-linejoin:miter;stroke:rgb(11.764706%,56.470588%,100%);stroke-opacity:1;stroke-miterlimit:4;" d="M -619.463542 677.6875 L -14.28125 -918.036458 " transform="matrix(0.75,0,0,0.75,750,750)"/>
<path style=" stroke:none;fill-rule:nonzero;fill:rgb(11.764706%,56.470588%,100%);fill-opacity:1;" d="M 739.289062 61.472656 L 740.992188 78.273438 L 726.871094 72.917969 Z M 739.289062 61.472656 "/>
<path style="fill-rule:nonzero;fill:rgb(0%,0%,0%);fill-opacity:1;stroke-width:4.027683;stroke-linecap:butt;stroke-linejoin:miter;stroke:rgb(52.941176%,80.784314%,92.156863%);stroke-opacity:1;stroke-miterlimit:4;" d="M -767.802083 507.234375 L -18.71875 -920.03125 " transform="matrix(0.75,0,0,0.75,750,750)"/>
<path style=" stroke:none;fill-rule:nonzero;fill:rgb(52.941176%,80.784314%,92.156863%);fill-opacity:1;" d="M 735.960938 59.976562 L 735.628906 76.859375 L 722.253906 69.839844 Z M 735.960938 59.976562 "/>
<path style="fill-rule:nonzero;fill:rgb(0%,0%,0%);fill-opacity:1;stroke-width:4.027683;stroke-linecap:butt;stroke-linejoin:miter;stroke:rgb(67.843137%,100%,18.431373%);stroke-opacity:1;stroke-miterlimit:4;" d="M -870.713542 305.744792 L -22.880208 -922.546875 " transform="matrix(0.75,0,0,0.75,750,750)"/>
<path style=" stroke:none;fill-rule:nonzero;fill:rgb(67.843137%,100%,18.431373%);fill-opacity:1;" d="M 732.839844 58.089844 L 730.476562 74.808594 L 718.046875 66.230469 Z M 732.839844 58.089844 "/>
<path style="fill-rule:nonzero;fill:rgb(0%,0%,0%);fill-opacity:1;stroke-width:4.027683;stroke-linecap:butt;stroke-linejoin:miter;stroke:rgb(69.019608%,87.843137%,90.196078%);stroke-opacity:1;stroke-miterlimit:4;" d="M -922.020833 85.046875 L -26.708333 -925.546875 " transform="matrix(0.75,0,0,0.75,750,750)"/>
<path style=" stroke:none;fill-rule:nonzero;fill:rgb(69.019608%,87.843137%,90.196078%);fill-opacity:1;" d="M 729.96875 55.839844 L 725.605469 72.152344 L 714.300781 62.136719 Z M 729.96875 55.839844 "/>
<path style="fill-rule:nonzero;fill:rgb(0%,0%,0%);fill-opacity:1;stroke-width:4.027683;stroke-linecap:butt;stroke-linejoin:miter;stroke:rgb(96.078431%,100%,98.039216%);stroke-opacity:1;stroke-miterlimit:4;" d="M -918.578125 -141.90625 L -30.145833 -928.989583 " transform="matrix(0.75,0,0,0.75,750,750)"/>
<path style=" stroke:none;fill-rule:nonzero;fill:rgb(96.078431%,100%,98.039216%);fill-opacity:1;" d="M 727.390625 53.257812 L 721.089844 68.929688 L 711.074219 57.621094 Z M 727.390625 53.257812 "/>
<path style="fill-rule:nonzero;fill:rgb(0%,0%,0%);fill-opacity:1;stroke-width:4.027683;stroke-linecap:butt;stroke-linejoin:miter;stroke:rgb(100%,98.039216%,80.392157%);stroke-opacity:1;stroke-miterlimit:4;" d="M -860.442708 -361.776042 L -33.145833 -932.817708 " transform="matrix(0.75,0,0,0.75,750,750)"/>
<path style=" stroke:none;fill-rule:nonzero;fill:rgb(100%,98.039216%,80.392157%);fill-opacity:1;" d="M 725.140625 50.386719 L 717 65.183594 L 708.417969 52.753906 Z M 725.140625 50.386719 "/>
<path style="fill-rule:nonzero;fill:rgb(0%,0%,0%);fill-opacity:1;stroke-width:4.027683;stroke-linecap:butt;stroke-linejoin:miter;stroke:rgb(100%,84.313725%,0%);stroke-opacity:1;stroke-miterlimit:4;" d="M -750.859375 -561.614583 L -35.661458 -936.979167 " transform="matrix(0.75,0,0,0.75,750,750)"/>
<path style=" stroke:none;fill-rule:nonzero;fill:rgb(100%,84.313725%,0%);fill-opacity:1;" d="M 723.253906 47.265625 L 713.386719 60.972656 L 706.371094 47.597656 Z M 723.253906 47.265625 "/>
<path style="fill-rule:nonzero;fill:rgb(0%,0%,0%);fill-opacity:1;stroke-width:4.027683;stroke-linecap:butt;stroke-linejoin:miter;stroke:rgb(100%,0%,0%);stroke-opacity:1;stroke-miterlimit:4;" d="M -596.083333 -729.630208 L -37.661458 -941.411458 " transform="matrix(0.75,0,0,0.75,750,750)"/>
<path style=" stroke:none;fill-rule:nonzero;fill:rgb(100%,0%,0%);fill-opacity:1;" d="M 721.753906 43.941406 L 710.3125 56.355469 L 704.957031 42.234375 Z M 721.753906 43.941406 "/>
<path style="fill-rule:nonzero;fill:rgb(0%,0%,0%);fill-opacity:1;stroke-width:4.027683;stroke-linecap:butt;stroke-linejoin:miter;stroke:rgb(82.745098%,82.745098%,82.745098%);stroke-opacity:1;stroke-miterlimit:4;" d="M -405.026042 -855.864583 L -39.104167 -946.057292 " transform="matrix(0.75,0,0,0.75,750,750)"/>
<path style=" stroke:none;fill-rule:nonzero;fill:rgb(82.745098%,82.745098%,82.745098%);fill-opacity:1;" d="M 720.671875 40.457031 L 707.8125 51.40625 L 704.199219 36.738281 Z M 720.671875 40.457031 "/>
<path style="fill-rule:nonzero;fill:rgb(0%,0%,0%);fill-opacity:1;stroke-width:4.027683;stroke-linecap:butt;stroke-linejoin:miter;stroke:rgb(100%,71.372549%,75.686275%);stroke-opacity:1;stroke-miterlimit:4;" d="M -188.729167 -932.78125 L -39.984375 -950.838542 " transform="matrix(0.75,0,0,0.75,750,750)"/>
<path style=" stroke:none;fill-rule:nonzero;fill:rgb(100%,71.372549%,75.686275%);fill-opacity:1;" d="M 720.011719 36.871094 L 705.929688 46.1875 L 704.109375 31.191406 Z M 720.011719 36.871094 "/>
<path style="fill:none;stroke-width:8.055366;stroke-linecap:butt;stroke-linejoin:miter;stroke:rgb(94.117647%,97.254902%,100%);stroke-opacity:1;stroke-miterlimit:4;" d="M 40.276042 -955.697917 C 40.276042 -933.453125 22.244792 -915.416667 0 -915.416667 C -22.244792 -915.416667 -40.276042 -933.453125 -40.276042 -955.697917 C -40.276042 -977.9375 -22.244792 -995.973958 0 -995.973958 C 22.244792 -995.973958 40.276042 -977.9375 40.276042 -955.697917 " transform="matrix(0.75,0,0,0.75,750,750)"/>
<path style="fill:none;stroke-width:8.055366;stroke-linecap:butt;stroke-linejoin:miter;stroke:rgb(67.843137%,100%,18.431373%);stroke-opacity:1;stroke-miterlimit:4;" d="M 268.989583 -927.927083 C 268.989583 -905.682292 250.958333 -887.645833 228.713542 -887.645833 C 206.46875 -887.645833 188.4375 -905.682292 188.4375 -927.927083 C 188.4375 -950.166667 206.46875 -968.203125 228.713542 -968.203125 C 250.958333 -968.203125 268.989583 -950.166667 268.989583 -927.927083 " transform="matrix(0.75,0,0,0.75,750,750)"/>
<path style="fill:none;stroke-width:8.055366;stroke-linecap:butt;stroke-linejoin:miter;stroke:rgb(41.960784%,55.686275%,13.72549%);stroke-opacity:1;stroke-miterlimit:4;" d="M 484.411458 -846.223958 C 484.411458 -823.984375 466.380208 -805.947917 444.135417 -805.947917 C 421.890625 -805.947917 403.859375 -823.984375 403.859375 -846.223958 C 403.859375 -868.46875 421.890625 -886.505208 444.135417 -886.505208 C 466.380208 -886.505208 484.411458 -868.46875 484.411458 -846.223958 " transform="matrix(0.75,0,0,0.75,750,750)"/>
<path style="fill:none;stroke-width:8.055366;stroke-linecap:butt;stroke-linejoin:miter;stroke:rgb(96.078431%,96.078431%,96.078431%);stroke-opacity:1;stroke-miterlimit:4;" d="M 674.020833 -715.348958 C 674.020833 -693.104167 655.989583 -675.072917 633.744792 -675.072917 C 611.5 -675.072917 593.46875 -693.104167 593.46875 -715.348958 C 593.46875 -737.59375 611.5 -755.625 633.744792 -755.625 C 655.989583 -755.625 674.020833 -737.59375 674.020833 -715.348958 " transform="matrix(0.75,0,0,0.75,750,750)"/>
<path style="fill:none;stroke-width:8.055366;stroke-linecap:butt;stroke-linejoin:miter;stroke:rgb(100%,54.901961%,0%);stroke-opacity:1;stroke-miterlimit:4;" d="M 826.796875 -542.895833 C 826.796875 -520.651042 808.765625 -502.619792 786.520833 -502.619792 C 764.276042 -502.619792 746.244792 -520.651042 746.244792 -542.895833 C 746.244792 -565.140625 764.276042 -583.171875 786.520833 -583.171875 C 808.765625 -583.171875 826.796875 -565.140625 826.796875 -542.895833 " transform="matrix(0.75,0,0,0.75,750,750)"/>
<path style="fill:none;stroke-width:8.055366;stroke-linecap:butt;stroke-linejoin:miter;stroke:rgb(100%,92.156863%,80.392157%);stroke-opacity:1;stroke-miterlimit:4;" d="M 933.869792 -338.895833 C 933.869792 -316.651042 915.833333 -298.619792 893.588542 -298.619792 C 871.348958 -298.619792 853.3125 -316.651042 853.3125 -338.895833 C 853.3125 -361.140625 871.348958 -379.171875 893.588542 -379.171875 C 915.833333 -379.171875 933.869792 -361.140625 933.869792 -338.895833 " transform="matrix(0.75,0,0,0.75,750,750)"/>
<path style="fill:none;stroke-width:8.055366;stroke-linecap:butt;stroke-linejoin:miter;stroke:rgb(50.196078%,50.196078%,50.196078%);stroke-opacity:1;stroke-miterlimit:4;" d="M 989.005208 -115.197917 C 989.005208 -92.953125 970.973958 -74.921875 948.729167 -74.921875 C 926.484375 -74.921875 908.453125 -92.953125 908.453125 -115.197917 C 908.453125 -137.442708 926.484375 -155.473958 948.729167 -155.473958 C 970.973958 -155.473958 989.005208 -137.442708 989.005208 -115.197917 " transform="matrix(0.75,0,0,0.75,750,750)"/>
<path style="fill:none;stroke-width:8.055366;stroke-linecap:butt;stroke-linejoin:miter;stroke:rgb(27.45098%,50.980392%,70.588235%);stroke-opacity:1;stroke-miterlimit:4;" d="M 989.005208 115.197917 C 989.005208 137.442708 970.973958 155.473958 948.729167 155.473958 C 926.484375 155.473958 908.453125 137.442708 908.453125 115.197917 C 908.453125 92.953125 926.484375 74.921875 948.729167 74.921875 C 970.973958 74.921875 989.005208 92.953125 989.005208 115.197917 " transform="matrix(0.75,0,0,0.75,750,750)"/>
<path style="fill:none;stroke-width:8.055366;stroke-linecap:butt;stroke-linejoin:miter;stroke:rgb(64.705882%,16.470588%,16.470588%);stroke-opacity:1;stroke-miterlimit:4;" d="M 933.869792 338.895833 C 933.869792 361.140625 915.833333 379.171875 893.588542 379.171875 C 871.348958 379.171875 853.3125 361.140625 853.3125 338.895833 C 853.3125 316.651042 871.348958 298.619792 893.588542 298.619792 C 915.833333 298.619792 933.869792 316.651042 933.869792 338.895833 " transform="matrix(0.75,0,0,0.75,750,750)"/>
<path style="fill:none;stroke-width:8.055366;stroke-linecap:butt;stroke-linejoin:miter;stroke:rgb(85.882353%,43.921569%,57.647059%);stroke-opacity:1;stroke-miterlimit:4;" d="M 826.796875 542.895833 C 826.796875 565.140625 808.765625 583.171875 786.520833 583.171875 C 764.276042 583.171875 746.244792 565.140625 746.244792 542.895833 C 746.244792 520.651042 764.276042 502.619792 786.520833 502.619792 C 808.765625 502.619792 826.796875 520.651042 826.796875 542.895833 " transform="matrix(0.75,0,0,0.75,750,750)"/>
<path style="fill:none;stroke-width:8.055366;stroke-linecap:butt;stroke-linejoin:miter;stroke:rgb(18.039216%,54.509804%,34.117647%);stroke-opacity:1;stroke-miterlimit:4;" d="M 674.020833 715.348958 C 674.020833 737.59375 655.989583 755.625 633.744792 755.625 C 611.5 755.625 593.46875 737.59375 593.46875 715.348958 C 593.46875 693.104167 611.5 675.072917 633.744792 675.072917 C 655.989583 675.072917 674.020833 693.104167 674.020833 715.348958 " transform="matrix(0.75,0,0,0.75,750,750)"/>
<path style="fill:none;stroke-width:8.055366;stroke-linecap:butt;stroke-linejoin:miter;stroke:rgb(97.254902%,97.254902%,100%);stroke-opacity:1;stroke-miterlimit:4;" d="M 484.411458 846.223958 C 484.411458 868.46875 466.380208 886.505208 444.135417 886.505208 C 421.890625 886.505208 403.859375 868.46875 403.859375 846.223958 C 403.859375 823.984375 421.890625 805.947917 444.135417 805.947917 C 466.380208 805.947917 484.411458 823.984375 484.411458 846.223958 " transform="matrix(0.75,0,0,0.75,750,750)"/>
<path style="fill:none;stroke-width:8.055366;stroke-linecap:butt;stroke-linejoin:miter;stroke:rgb(100%,93.72549%,83.529412%);stroke-opacity:1;stroke-miterlimit:4;" d="M 268.989583 927.927083 C 268.989583 950.166667 250.958333 968.203125 228.713542 968.203125 C 206.46875 968.203125 188.4375 950.166667 188.4375 927.927083 C 188.4375 905.682292 206.46875 887.645833 228.713542 887.645833 C 250.958333 887.645833 268.989583 905.682292 268.989583 927.927083 " transform="matrix(0.75,0,0,0.75,750,750)"/>
<path style="fill:none;stroke-width:8.055366;stroke-linecap:butt;stroke-linejoin:miter;stroke:rgb(43.921569%,50.196078%,56.470588%);stroke-opacity:1;stroke-miterlimit:4;" d="M 40.276042 955.697917 C 40.276042 977.9375 22.244792 995.973958 0 995.973958 C -22.244792 995.973958 -40.276042 977.9375 -40.276042 955.697917 C -40.276042 933.453125 -22.244792 915.416667 0 915.416667 C 22.244792 915.416667 40.276042 933.453125 40.276042 955.697917 " transform="matrix(0.75,0,0,0.75,750,750)"/>
<path style="fill:none;stroke-width:8.055366;stroke-linecap:butt;stroke-linejoin:miter;stroke:rgb(98.039216%,92.156863%,84.313725%);stroke-opacity:1;stroke-miterlimit:4;" d="M -188.4375 927.927083 C -188.4375 950.166667 -206.46875 968.203125 -228.713542 968.203125 C -250.958333 968.203125 -268.989583 950.166667 -268.989583 927.927083 C -268.989583 905.682292 -250.958333 887.645833 -228.713542 887.645833 C -206.46875 887.645833 -188.4375 905.682292 -188.4375 927.927083 " transform="matrix(0.75,0,0,0.75,750,750)"/>
<path style="fill:none;stroke-width:8.055366;stroke-linecap:butt;stroke-linejoin:miter;stroke:rgb(0%,50.196078%,0%);stroke-opacity:1;stroke-miterlimit:4;" d="M -403.859375 846.223958 C -403.859375 868.46875 -421.890625 886.505208 -444.135417 886.505208 C -466.380208 886.505208 -484.411458 868.46875 -484.411458 846.223958 C -484.411458 823.984375 -466.380208 805.947917 -444.135417 805.947917 C -421.890625 805.947917 -403.859375 823.984375 -403.859375 846.223958 " transform="matrix(0.75,0,0,0.75,750,750)"/>
<path style="fill:none;stroke-width:8.055366;stroke-linecap:butt;stroke-linejoin:miter;stroke:rgb(11.764706%,56.470588%,100%);stroke-opacity:1;stroke-miterlimit:4;" d="M -593.46875 715.348958 C -593.46875 737.59375 -611.5 755.625 -633.744792 755.625 C -655.989583 755.625 -674.020833 737.59375 -674.020833 715.348958 C -674.020833 693.104167 -655.989583 675.072917 -633.744792 675.072917 C -611.5 675.072917 -593.46875 693.104167 -593.46875 715.348958 " transform="matrix(0.75,0,0,0.75,750,750)"/>
<path style="fill:none;stroke-width:8.055366;stroke-linecap:butt;stroke-linejoin:miter;stroke:rgb(52.941176%,80.784314%,92.156863%);stroke-opacity:1;stroke-miterlimit:4;" d="M -746.244792 542.895833 C -746.244792 565.140625 -764.276042 583.171875 -786.520833 583.171875 C -808.765625 583.171875 -826.796875 565.140625 -826.796875 542.895833 C -826.796875 520.651042 -808.765625 502.619792 -786.520833 502.619792 C -764.276042 502.619792 -746.244792 520.651042 -746.244792 542.895833 " transform="matrix(0.75,0,0,0.75,750,750)"/>
<path style="fill:none;stroke-width:8.055366;stroke-linecap:butt;stroke-linejoin:miter;stroke:rgb(67.843137%,100%,18.431373%);stroke-opacity:1;stroke-miterlimit:4;" d="M -853.3125 338.895833 C -853.3125 361.140625 -871.348958 379.171875 -893.588542 379.171875 C -915.833333 379.171875 -933.869792 361.140625 -933.869792 338.895833 C -933.869792 316.651042 -915.833333 298.619792 -893.588542 298.619792 C -871.348958 298.619792 -853.3125 316.651042 -853.3125 338.895833 " transform="matrix(0.75,0,0,0.75,750,750)"/>
<path style="fill:none;stroke-width:8.055366;stroke-linecap:butt;stroke-linejoin:miter;stroke:rgb(69.019608%,87.843137%,90.196078%);stroke-opacity:1;stroke-miterlimit:4;" d="M -908.453125 115.197917 C -908.453125 137.442708 -926.484375 155.473958 -948.729167 155.473958 C -970.973958 155.473958 -989.005208 137.442708 -989.005208 115.197917 C -989.005208 92.953125 -970.973958 74.921875 -948.729167 74.921875 C -926.484375 74.921875 -908.453125 92.953125 -908.453125 115.197917 " transform="matrix(0.75,0,0,0.75,750,750)"/>
<path style="fill:none;stroke-width:8.055366;stroke-linecap:butt;stroke-linejoin:miter;stroke:rgb(96.078431%,100%,98.039216%);stroke-opacity:1;stroke-miterlimit:4;" d="M -908.453125 -115.197917 C -908.453125 -92.953125 -926.484375 -74.921875 -948.729167 -74.921875 C -970.973958 -74.921875 -989.005208 -92.953125 -989.005208 -115.197917 C -989.005208 -137.442708 -970.973958 -155.473958 -948.729167 -155.473958 C -926.484375 -155.473958 -908.453125 -137.442708 -908.453125 -115.197917 " transform="matrix(0.75,0,0,0.75,750,750)"/>
<path style="fill:none;stroke-width:8.055366;stroke-linecap:butt;stroke-linejoin:miter;stroke:rgb(100%,98.039216%,80.392157%);stroke-opacity:1;stroke-miterlimit:4;" d="M -853.3125 -338.895833 C -853.3125 -316.651042 -871.348958 -298.619792 -893.588542 -298.619792 C -915.833333 -298.619792 -933.869792 -316.651042 -933.869792 -338.895833 C -933.869792 -361.140625 -915.833333 -379.171875 -893.588542 -379.171875 C -871.348958 -379.171875 -853.3125 -361.140625 -853.3125 -338.895833 " transform="matrix(0.75,0,0,0.75,750,750)"/>
<path style="fill:none;stroke-width:8.055366;stroke-linecap:butt;stroke-linejoin:miter;stroke:rgb(100%,84.313725%,0%);stroke-opacity:1;stroke-miterlimit:4;" d="M -746.244792 -542.895833 C -746.244792 -520.651042 -764.276042 -502.619792 -786.520833 -502.619792 C -808.765625 -502.619792 -826.796875 -520.651042 -826.796875 -542.895833 C -826.796875 -565.140625 -808.765625 -583.171875 -786.520833 -583.171875 C -764.276042 -583.171875 -746.244792 -565.140625 -746.244792 -542.895833 " transform="matrix(0.75,0,0,0.75,750,750)"/>
<path style="fill:none;stroke-width:8.055366;stroke-linecap:butt;stroke-linejoin:miter;stroke:rgb(100%,0%,0%);stroke-opacity:1;stroke-miterlimit:4;" d="M -593.46875 -715.348958 C -593.46875 -693.104167 -611.5 -675.072917 -633.744792 -675.072917 C -655.989583 -675.072917 -674.020833 -693.104167 -674.020833 -715.348958 C -674.020833 -737.59375 -655.989583 -755.625 -633.744792 -755.625 C -611.5 -755.625 -593.46875 -737.59375 -593.46875 -715.348958 " transform="matrix(0.75,0,0,0.75,750,750)"/>
<path style="fill:none;stroke-width:8.055366;stroke-linecap:butt;stroke-linejoin:miter;stroke:rgb(82.745098%,82.745098%,82.745098%);stroke-opacity:1;stroke-miterlimit:4;" d="M -403.859375 -846.223958 C -403.859375 -823.984375 -421.890625 -805.947917 -444.135417 -805.947917 C -466.380208 -805.947917 -484.411458 -823.984375 -484.411458 -846.223958 C -484.411458 -868.46875 -466.380208 -886.505208 -444.135417 -886.505208 C -421.890625 -886.505208 -403.859375 -868.46875 -403.859375 -846.223958 " transform="matrix(0.75,0,0,0.75,750,750)"/>
<path style="fill:none;stroke-width:8.055366;stroke-linecap:butt;stroke-linejoin:miter;stroke:rgb(100%,71.372549%,75.686275%);stroke-opacity:1;stroke-miterlimit:4;" d="M -188.4375 -927.927083 C -188.4375 -905.682292 -206.46875 -887.645833 -228.713542 -887.645833 C -250.958333 -887.645833 -268.989583 -905.682292 -268.989583 -927.927083 C -268.989583 -950.166667 -250.958333 -968.203125 -228.713542 -968.203125 C -206.46875 -968.203125 -188.4375 -950.166667 -188.4375 -927.927083 " transform="matrix(0.75,0,0,0.75,750,750)"/>
</g>
</svg>
